<svg width="16" height="16" viewBox="0 0 16 16" fill="none" xmlns="http://www.w3.org/2000/svg">
<path d="M8.85332 13.9965L8.58239 14.6543C8.52857 14.7846 8.40551 14.8728 8.26701 14.8787C8.17551 14.8822 8.08326 14.8848 7.99007 14.8848C4.80107 14.8831 1.97951 12.6277 1.28039 9.52002L0.194824 9.76583C0.587137 11.509 1.57182 13.0911 2.96764 14.2218C4.37964 15.3653 6.15839 15.9966 7.97807 16H7.99432C8.1012 16 8.2072 15.9975 8.31314 15.9931C8.88414 15.9692 9.39439 15.6103 9.61239 15.0783L9.9662 14.2183L8.85332 13.9965Z" fill="url(#paint0_linear_140_136)"/>
<path d="M0.283751 10.1196C0.0951406 9.42902 -0.000288223 8.71631 6.53882e-07 8.00042C6.53882e-07 4.71974 2.05394 1.71999 5.11138 0.537048L5.51225 1.5778C2.8805 2.59624 1.11288 5.17717 1.11288 8.00042C1.11254 8.61643 1.19447 9.22973 1.3565 9.82405L0.283751 10.1196Z" fill="url(#paint1_linear_140_136)"/>
<path d="M14.1059 4.83112C12.9161 2.53975 10.5741 1.11612 7.99534 1.11612C7.08159 1.11612 6.19359 1.29256 5.35759 1.6395L4.93115 0.609C5.90296 0.205625 6.93378 0 7.99534 0C10.9912 0 13.711 1.65319 15.0931 4.31544L14.1059 4.83112Z" fill="url(#paint2_linear_140_136)"/>
<path d="M5.60785 6.34984C6.25322 6.34984 6.77891 6.69502 7.04897 7.29721L7.07035 7.34434L8.1541 6.97515L8.13104 6.91946C7.71135 5.89415 6.74466 5.25684 5.60791 5.25684C4.80872 5.25684 4.1591 5.51384 3.62229 6.04146C3.08897 6.56571 2.81885 7.22521 2.81885 8.00215C2.81885 8.77221 3.08897 9.4284 3.62229 9.95259C4.1591 10.4803 4.80872 10.7372 5.60791 10.7372C6.74466 10.7372 7.71135 10.0999 8.13104 9.07546L8.15416 9.01984L7.06866 8.64971L7.0481 8.69859C6.80622 9.29046 6.26772 9.64421 5.60785 9.64421C5.15828 9.64421 4.77879 9.48665 4.47785 9.17652C4.17366 8.86215 4.01979 8.46727 4.01979 8.00302C4.01979 7.53534 4.17022 7.14815 4.47791 6.81927C4.77791 6.5074 5.15822 6.34984 5.60785 6.34984Z" fill="#09293F"/>
<path d="M12.3961 5.35785L10.8516 9.27841L9.29678 5.35785H8.0249L10.2054 10.7089L8.65403 14.483L9.76603 14.7048L13.5978 5.35785H12.3961Z" fill="#09293F"/>
<path d="M15.0928 4.31543C15.6555 5.41155 15.9998 6.69906 15.9998 8.01687C15.9998 11.0919 14.2704 13.7616 11.734 15.1008L11.186 14.1291C13.3854 12.9821 14.8877 10.6754 14.8877 8.01687C14.8877 6.86312 14.6057 5.78618 14.1057 4.83105L15.0928 4.31543Z" fill="url(#paint3_linear_140_136)"/>
<defs>
<linearGradient id="paint0_linear_140_136" x1="61.9499" y1="294.821" x2="825.805" y2="498.776" gradientUnits="userSpaceOnUse">
<stop stop-color="#315C55"/>
<stop offset="1" stop-color="#09293F"/>
</linearGradient>
<linearGradient id="paint1_linear_140_136" x1="299.304" y1="261.777" x2="228.206" y2="953.924" gradientUnits="userSpaceOnUse">
<stop stop-color="#4FB38D"/>
<stop offset="1" stop-color="#315C55"/>
</linearGradient>
<linearGradient id="paint2_linear_140_136" x1="146.274" y1="241.556" x2="710.035" y2="344.908" gradientUnits="userSpaceOnUse">
<stop stop-color="#4FB38D"/>
<stop offset="1" stop-color="#97DEC0"/>
</linearGradient>
<linearGradient id="paint3_linear_140_136" x1="270.458" y1="337.497" x2="-36.9646" y2="913.071" gradientUnits="userSpaceOnUse">
<stop stop-color="#97DEC0"/>
<stop offset="1" stop-color="#FFFFF0" stop-opacity="0"/>
</linearGradient>
</defs>
</svg>
