<svg width="16" viewBox="0 0 16 16" fill="none" xmlns="http://www.w3.org/2000/svg">
<path d="M8.00016 1.33331C7.12468 1.33331 6.25778 1.50575 5.44894 1.84078C4.6401 2.17581 3.90517 2.66688 3.28612 3.28593C2.03587 4.53618 1.3335 6.23187 1.3335 7.99998C1.3335 10.9466 3.24683 13.4466 5.8935 14.3333C6.22683 14.3866 6.3335 14.18 6.3335 14V12.8733C4.48683 13.2733 4.0935 11.98 4.0935 11.98C3.78683 11.2066 3.3535 11 3.3535 11C2.74683 10.5866 3.40016 10.6 3.40016 10.6C4.06683 10.6466 4.42016 11.2866 4.42016 11.2866C5.00016 12.3 5.98016 12 6.36016 11.84C6.42016 11.4066 6.5935 11.1133 6.78016 10.9466C5.30016 10.78 3.74683 10.2066 3.74683 7.66665C3.74683 6.92665 4.00016 6.33331 4.4335 5.85998C4.36683 5.69331 4.1335 4.99998 4.50016 4.09998C4.50016 4.09998 5.06016 3.91998 6.3335 4.77998C6.86016 4.63331 7.4335 4.55998 8.00016 4.55998C8.56683 4.55998 9.14016 4.63331 9.66683 4.77998C10.9402 3.91998 11.5002 4.09998 11.5002 4.09998C11.8668 4.99998 11.6335 5.69331 11.5668 5.85998C12.0002 6.33331 12.2535 6.92665 12.2535 7.66665C12.2535 10.2133 10.6935 10.7733 9.20683 10.94C9.44683 11.1466 9.66683 11.5533 9.66683 12.1733V14C9.66683 14.18 9.7735 14.3933 10.1135 14.3333C12.7602 13.44 14.6668 10.9466 14.6668 7.99998C14.6668 7.1245 14.4944 6.25759 14.1594 5.44876C13.8243 4.63992 13.3333 3.90499 12.7142 3.28593C12.0952 2.66688 11.3602 2.17581 10.5514 1.84078C9.74255 1.50575 8.87564 1.33331 8.00016 1.33331Z" fill="#49475F"/>
</svg>
