<svg width="16" viewBox="0 0 16 16" fill="none" xmlns="http://www.w3.org/2000/svg">
<path d="M2.60225 12.6899H4.59088V7.86036L1.75 5.72974V11.8377C1.75 12.3092 2.13213 12.6899 2.60225 12.6899Z" fill="#4285F4"/>
<path d="M11.4092 12.6899H13.3979C13.8694 12.6899 14.2501 12.3078 14.2501 11.8377V5.72968L11.4092 7.86036" fill="#34A853"/>
<path d="M11.4092 4.16717V7.86036L14.2501 5.72974V4.59324C14.2501 3.5393 13.047 2.93842 12.2047 3.57055" fill="#FBBC04"/>
<path d="M4.59082 7.86036V4.16724L7.99988 6.72393L11.4089 4.16711V7.8603L7.99988 10.4172" fill="#EA4335"/>
<path d="M1.75 4.5933V5.72967L4.59088 7.86036V4.16724L3.79544 3.57061C2.95169 2.93849 1.75 3.53936 1.75 4.5933Z" fill="#C5221F"/>
</svg>
