<svg width="16" height="16" viewBox="0 0 16 16" fill="none" xmlns="http://www.w3.org/2000/svg">
<path d="M0 0H16V16H0V0Z" fill="#F7DF1E"/>
<path d="M4.20709 13.3708L5.43147 12.6298C5.66772 13.0486 5.88259 13.403 6.39803 13.403C6.89209 13.403 7.20366 13.2097 7.20366 12.458V7.34558H8.70722V12.4792C8.70722 14.0365 7.79434 14.7454 6.46247 14.7454C5.25966 14.7454 4.56147 14.1225 4.20703 13.3706M9.52391 13.2096L10.7482 12.5008C11.0705 13.0271 11.4893 13.4138 12.2303 13.4138C12.8534 13.4138 13.2507 13.1023 13.2507 12.6726C13.2507 12.1571 12.8425 11.9745 12.1552 11.6739L11.7793 11.5126C10.6945 11.051 9.97497 10.471 9.97497 9.24658C9.97497 8.11883 10.8342 7.25958 12.1767 7.25958C13.1326 7.25958 13.82 7.59258 14.314 8.46252L13.1432 9.21439C12.8854 8.75258 12.6063 8.57002 12.1767 8.57002C11.7363 8.57002 11.457 8.84927 11.457 9.21439C11.457 9.66546 11.7363 9.84814 12.3807 10.1274L12.7565 10.2885C14.0347 10.8363 14.7542 11.3947 14.7542 12.6512C14.7542 14.0046 13.691 14.7456 12.2625 14.7456C10.8663 14.7456 9.96416 14.0797 9.52384 13.2097" fill="black"/>
</svg>
