<svg width="16" height="16" viewBox="0 0 16 16" fill="none" xmlns="http://www.w3.org/2000/svg">
<path d="M13.5447 7.89298C13.5447 7.5474 13.4074 7.21598 13.1631 6.97162C12.9187 6.72726 12.5873 6.58998 12.2417 6.58998C12.195 6.58998 12.1494 6.59231 12.1047 6.59698L13.8947 1.31848H6.28869L8.07569 6.59248C8.04969 6.59248 8.02319 6.58998 7.99669 6.58998C7.68593 6.59027 7.38549 6.70158 7.14955 6.90384C6.91361 7.1061 6.7577 7.386 6.70992 7.69307C6.66214 8.00014 6.72564 8.31418 6.88897 8.57856C7.0523 8.84295 7.30471 9.04028 7.60069 9.13498C7.32342 9.61214 6.97832 10.0465 6.57619 10.4245C6.0531 10.9253 5.43115 11.3114 4.75019 11.558C4.36878 11.3771 4.07049 11.0578 3.91588 10.665C3.76126 10.2722 3.76191 9.83532 3.91769 9.44298C3.95636 9.35298 3.99469 9.26231 4.03269 9.17098C4.32336 9.10258 4.58175 8.93649 4.76467 8.70047C4.94759 8.46445 5.04397 8.1728 5.0377 7.87426C5.03143 7.57572 4.92288 7.28837 4.7302 7.06025C4.53753 6.83212 4.27239 6.67703 3.97911 6.6209C3.68582 6.56477 3.38216 6.611 3.11886 6.75186C2.85557 6.89271 2.64859 7.11967 2.53252 7.3948C2.41646 7.66993 2.39833 7.97655 2.48118 8.26344C2.56403 8.55032 2.74282 8.80008 2.98769 8.97098C2.57106 9.72497 2.2536 10.5296 2.04319 11.365C1.86619 12.4325 2.04319 13.565 2.96569 14.2055C5.11569 15.696 7.45019 13.2815 9.91119 12.675C10.8032 12.455 11.7822 12.4905 12.5677 12.035C12.8517 11.8736 13.0966 11.6516 13.2849 11.3847C13.4733 11.1178 13.6004 10.8126 13.6572 10.491C13.7094 10.1847 13.6995 9.87099 13.6281 9.56857C13.5567 9.26615 13.4253 8.98115 13.2417 8.73048C13.4377 8.49623 13.545 8.20043 13.5447 7.89498V7.89298ZM9.30019 7.89998V7.89548C9.30057 7.67125 9.24293 7.45073 9.13289 7.25536C9.02285 7.05998 8.86414 6.89639 8.67219 6.78048L10.0942 3.89998L11.5192 6.80698C11.3404 6.92578 11.1938 7.08699 11.0926 7.27623C10.9913 7.46547 10.9384 7.67684 10.9387 7.89148V7.91998L9.30019 7.89998Z" fill="#99425B"/>
<path d="M13.8629 7.893C13.8621 7.51527 13.7297 7.14961 13.4885 6.85889C13.2474 6.56817 12.9125 6.37055 12.5414 6.3L14.3384 1H5.84436L7.64436 6.3105C7.32997 6.38051 7.04357 6.5426 6.82169 6.77608C6.59981 7.00956 6.45252 7.30384 6.3986 7.62139C6.34468 7.93894 6.38659 8.26535 6.51897 8.55897C6.65135 8.8526 6.8682 9.10014 7.14186 9.27C6.9153 9.60559 6.65238 9.91513 6.35786 10.193C5.90156 10.63 5.36504 10.9747 4.77786 11.208C4.50257 11.0478 4.29392 10.7941 4.18987 10.493C4.08581 10.1919 4.09326 9.86353 4.21086 9.5675L4.23086 9.521L4.26786 9.4335C4.60096 9.31795 4.88733 9.09701 5.08362 8.80413C5.27991 8.51126 5.37543 8.16241 5.35571 7.81039C5.336 7.45838 5.20212 7.12237 4.97435 6.85325C4.74659 6.58413 4.43734 6.39655 4.09342 6.31891C3.74951 6.24127 3.38967 6.2778 3.06838 6.42298C2.74708 6.56815 2.48184 6.81406 2.31281 7.12346C2.14378 7.43287 2.08017 7.78892 2.1316 8.13772C2.18304 8.48652 2.34672 8.80905 2.59786 9.0565C2.54353 9.17183 2.48703 9.2895 2.42836 9.4095C2.10418 10.0056 1.86838 10.6456 1.72836 11.3095C1.49586 12.7095 1.87086 13.831 2.78386 14.4635C3.27466 14.8145 3.86346 15.0022 4.46686 15C5.53286 15 6.61136 14.4645 7.66686 13.9405C8.40424 13.5394 9.18231 13.218 9.98786 12.982C10.285 12.9136 10.5854 12.8604 10.8879 12.8225C11.5284 12.771 12.1529 12.5964 12.7274 12.3085C13.0513 12.1234 13.3307 11.8694 13.5456 11.5644C13.7604 11.2594 13.9056 10.9109 13.9709 10.5435C14.077 9.91944 13.9545 9.27802 13.6259 8.737C13.7821 8.48327 13.8638 8.19096 13.8629 7.893ZM13.2264 7.893C13.2264 8.08781 13.1686 8.27825 13.0604 8.44024C12.9521 8.60222 12.7983 8.72847 12.6183 8.80302C12.4383 8.87757 12.2403 8.89708 12.0492 8.85907C11.8581 8.82107 11.6826 8.72726 11.5449 8.5895C11.4071 8.45175 11.3133 8.27624 11.2753 8.08516C11.2373 7.89409 11.2568 7.69604 11.3313 7.51606C11.4059 7.33607 11.5321 7.18224 11.6941 7.074C11.8561 6.96577 12.0465 6.908 12.2414 6.908C12.5025 6.9084 12.7528 7.0123 12.9374 7.19694C13.1221 7.38158 13.226 7.63188 13.2264 7.893ZM13.4499 1.6365L11.8629 6.3165C11.7948 6.33265 11.728 6.35353 11.6629 6.379L10.0954 3.179L8.52286 6.36C8.4545 6.33596 8.38448 6.31691 8.31336 6.303L6.73186 1.6365H13.4499ZM7.99636 6.908C8.19118 6.908 8.38162 6.96577 8.5436 7.074C8.70558 7.18224 8.83183 7.33607 8.90639 7.51606C8.98094 7.69604 9.00044 7.89409 8.96244 8.08516C8.92443 8.27624 8.83062 8.45175 8.69286 8.5895C8.55511 8.72726 8.3796 8.82107 8.18853 8.85907C7.99746 8.89708 7.79941 8.87757 7.61942 8.80302C7.43944 8.72847 7.2856 8.60222 7.17737 8.44024C7.06913 8.27825 7.01136 8.08781 7.01136 7.893C7.01136 7.63176 7.11514 7.38122 7.29986 7.1965C7.48459 7.01178 7.73513 6.908 7.99636 6.908ZM3.73486 6.9175C3.92968 6.9175 4.12012 6.97527 4.2821 7.0835C4.44408 7.19174 4.57033 7.34557 4.64489 7.52556C4.71944 7.70554 4.73894 7.90359 4.70094 8.09466C4.66293 8.28573 4.56912 8.46125 4.43136 8.599C4.29361 8.73675 4.1181 8.83057 3.92703 8.86857C3.73596 8.90658 3.53791 8.88707 3.35792 8.81252C3.17794 8.73797 3.0241 8.61172 2.91587 8.44974C2.80763 8.28775 2.74986 8.09731 2.74986 7.9025C2.74986 7.64135 2.85357 7.39089 3.03819 7.20618C3.2228 7.02147 3.47371 6.91763 3.73486 6.9175ZM13.3434 10.4345C13.2939 10.7101 13.1845 10.9715 13.0229 11.2001C12.8612 11.4287 12.6512 11.619 12.4079 11.7575C11.9029 12.0028 11.3562 12.1504 10.7964 12.1925C10.4804 12.238 10.1539 12.285 9.83436 12.364C8.98385 12.6103 8.16242 12.9478 7.38436 13.3705C5.80236 14.156 4.43436 14.8345 3.14836 13.942C2.20486 13.288 2.24836 12.078 2.35836 11.415C2.48779 10.8114 2.70386 10.2297 2.99986 9.688L3.13486 9.4085C3.26933 9.46171 3.4102 9.49701 3.55386 9.5135C3.42609 9.96298 3.46141 10.4432 3.65357 10.8691C3.84572 11.2951 4.18234 11.6393 4.60386 11.841L4.72636 11.904L4.85586 11.8575C5.57857 11.5972 6.23875 11.1884 6.79386 10.6575C7.16095 10.3126 7.48315 9.92289 7.75286 9.4975C8.09843 9.55006 8.45172 9.48948 8.76003 9.3248C9.06834 9.16012 9.31514 8.90016 9.4636 8.58372C9.61207 8.26728 9.65424 7.91132 9.58382 7.56895C9.5134 7.22658 9.33416 6.91616 9.07286 6.684L10.0919 4.6235L11.1214 6.7235C10.8284 7.00579 10.6525 7.38796 10.6284 7.79405C10.6043 8.20015 10.7339 8.60044 10.9914 8.91538C11.2489 9.23032 11.6154 9.43685 12.0182 9.49394C12.421 9.55102 12.8305 9.45448 13.1654 9.2235C13.3512 9.59804 13.4133 10.0219 13.3429 10.434L13.3434 10.4345Z" fill="white"/>
</svg>
