<svg width="16" viewBox="0 0 16 16" fill="none" xmlns="http://www.w3.org/2000/svg">
<path d="M11.5353 1.5H4.46467C3.67839 1.5 2.92431 1.81235 2.36833 2.36833C1.81235 2.92431 1.5 3.67839 1.5 4.46467V11.5353C1.5 12.3216 1.81235 13.0757 2.36833 13.6317C2.92431 14.1877 3.67839 14.5 4.46467 14.5H11.5353C12.3216 14.5 13.0757 14.1877 13.6317 13.6317C14.1877 13.0757 14.5 12.3216 14.5 11.5353V4.46467C14.5 3.67839 14.1877 2.92431 13.6317 2.36833C13.0757 1.81235 12.3216 1.5 11.5353 1.5ZM5.89533 11.9947C5.89742 12.031 5.89207 12.0673 5.87961 12.1014C5.86715 12.1356 5.84784 12.1668 5.82286 12.1932C5.79789 12.2196 5.76778 12.2407 5.73439 12.255C5.70099 12.2694 5.66501 12.2767 5.62867 12.2767H4.442C4.37044 12.2749 4.30242 12.2452 4.25255 12.1938C4.20269 12.1425 4.17496 12.0736 4.17533 12.002V7.06667C4.17435 7.03104 4.18053 6.99557 4.19349 6.96236C4.20645 6.92916 4.22594 6.89889 4.2508 6.87335C4.27566 6.8478 4.30539 6.8275 4.33823 6.81364C4.37107 6.79979 4.40636 6.79265 4.442 6.79267H5.62867C5.66431 6.79265 5.6996 6.79979 5.73244 6.81364C5.76528 6.8275 5.79501 6.8478 5.81987 6.87335C5.84473 6.89889 5.86422 6.92916 5.87718 6.96236C5.89014 6.99557 5.89631 7.03104 5.89533 7.06667V11.9947ZM5.01333 5.75467C4.88486 5.7537 4.75783 5.72744 4.6395 5.67739C4.52117 5.62733 4.41386 5.55446 4.3237 5.46293C4.23353 5.37141 4.16227 5.26302 4.114 5.14395C4.06572 5.02488 4.04137 4.89748 4.04233 4.769C4.0433 4.64052 4.06956 4.51349 4.11961 4.39517C4.16967 4.27684 4.24254 4.16953 4.33407 4.07936C4.42559 3.9892 4.53398 3.91794 4.65305 3.86966C4.77212 3.82139 4.89952 3.79704 5.028 3.798C5.28301 3.80629 5.52469 3.91392 5.70146 4.0979C5.87823 4.28189 5.9761 4.52768 5.97418 4.78282C5.97227 5.03796 5.87072 5.28225 5.69121 5.46356C5.5117 5.64488 5.26844 5.74887 5.01333 5.75333M12.2247 11.9867C12.2244 12.054 12.1979 12.1186 12.1509 12.1669C12.1039 12.2151 12.04 12.2433 11.9727 12.2453H10.72C10.6526 12.2433 10.5886 12.215 10.5415 12.1666C10.4945 12.1183 10.4681 12.0535 10.468 11.986V9.70333C10.468 9.36267 10.572 8.22133 9.564 8.22133C8.778 8.22133 8.62267 9.02133 8.59267 9.37733V12.038C8.5927 12.1056 8.56641 12.1705 8.51936 12.2191C8.47232 12.2676 8.40823 12.2959 8.34067 12.298H7.12533C7.05649 12.2978 6.99053 12.2704 6.94192 12.2216C6.8933 12.1729 6.866 12.1068 6.866 12.038V7.04267C6.86808 6.97511 6.89639 6.91101 6.94492 6.86397C6.99346 6.81693 7.05841 6.79063 7.126 6.79067H8.34067C8.40826 6.79063 8.47321 6.81693 8.52174 6.86397C8.57028 6.91101 8.59859 6.97511 8.60067 7.04267V7.47267C8.77802 7.21308 9.02288 7.00684 9.30884 6.8762C9.5948 6.74556 9.911 6.69547 10.2233 6.73133C12.2467 6.73133 12.2393 8.62133 12.2393 9.696L12.2247 11.9867Z" fill="#0A66C2"/>
</svg>
