<svg width="16" height="16" viewBox="0 0 16 16" fill="none" xmlns="http://www.w3.org/2000/svg">
<path fill-rule="evenodd" clip-rule="evenodd" d="M12.0019 9.85446C12.0514 9.82603 12.0926 9.78507 12.1213 9.73571C12.15 9.68634 12.1652 9.63031 12.1654 9.57321L12.1713 7.6894C12.1714 7.6323 12.1866 7.57626 12.2153 7.5269C12.244 7.47753 12.2851 7.43657 12.3346 7.40815L13.3558 6.82159C13.4306 6.77868 13.5193 6.76718 13.6026 6.7896C13.6858 6.81203 13.7568 6.86655 13.7999 6.94121C13.8284 6.99065 13.8435 7.04675 13.8434 7.10384V10.5286C13.8435 10.5859 13.8284 10.6421 13.7997 10.6917C13.771 10.7413 13.7297 10.7824 13.68 10.8108L9.82619 13.0244C9.77696 13.0526 9.7212 13.0675 9.66445 13.0676C9.60769 13.0676 9.55191 13.0529 9.50263 13.0247L6.47819 11.2949C6.42837 11.2664 6.38696 11.2253 6.35815 11.1757C6.32934 11.1261 6.31415 11.0697 6.31413 11.0123V9.28546C6.31413 9.28353 6.31644 9.28221 6.31838 9.28315C6.31876 9.28341 6.31922 9.28355 6.31968 9.28357C6.32015 9.28358 6.32061 9.28346 6.32101 9.28323C6.32141 9.283 6.32174 9.28265 6.32196 9.28224C6.32218 9.28183 6.32228 9.28137 6.32225 9.2809V9.27896C6.32225 9.27765 6.32294 9.27634 6.32425 9.27571L8.81513 7.84471C8.81738 7.8434 8.81638 7.83984 8.81381 7.83984C8.81312 7.83982 8.81246 7.83954 8.81197 7.83905C8.81149 7.83856 8.8112 7.8379 8.81119 7.83721L8.81606 6.14415C8.81634 6.08689 8.80149 6.03058 8.77301 5.9809C8.74453 5.93123 8.70343 5.88996 8.65388 5.86128C8.60435 5.83257 8.54813 5.81742 8.49089 5.81737C8.43364 5.81731 8.37739 5.83235 8.32781 5.86096L6.47656 6.92771C6.42715 6.95615 6.37114 6.97112 6.31413 6.97112C6.25711 6.97112 6.2011 6.95615 6.15169 6.92771L4.29456 5.85834C4.24509 5.82983 4.18899 5.81484 4.1319 5.81486C4.0748 5.81489 4.01871 5.82994 3.96927 5.85851C3.91983 5.88707 3.87878 5.92813 3.85023 5.97758C3.82168 6.02703 3.80664 6.08312 3.80663 6.14021V9.20015C3.80668 9.25719 3.79175 9.31324 3.76333 9.36268C3.7349 9.41213 3.69398 9.45324 3.64466 9.48189C3.59534 9.51054 3.53936 9.52572 3.48233 9.52592C3.42529 9.52612 3.36921 9.51133 3.31969 9.48303L2.28906 8.89384C2.23915 8.86532 2.19768 8.82409 2.16887 8.77435C2.14005 8.72462 2.12492 8.66813 2.125 8.61065L2.13413 3.26234C2.13425 3.20532 2.14934 3.14934 2.1779 3.09999C2.20646 3.05064 2.24748 3.00965 2.29686 2.98114C2.34624 2.95263 2.40224 2.93759 2.45926 2.93753C2.51627 2.93746 2.57231 2.95238 2.62175 2.98078L6.152 5.00846C6.20134 5.03679 6.25724 5.05169 6.31413 5.05169C6.37102 5.05169 6.42691 5.03679 6.47625 5.00846L10.0056 2.98078C10.0804 2.93778 10.1692 2.92626 10.2525 2.94874C10.3358 2.97122 10.4067 3.02586 10.4497 3.10065C10.4782 3.15009 10.4932 3.20621 10.4932 3.26334V8.6129C10.4932 8.67013 10.4781 8.72636 10.4495 8.77591C10.4209 8.82546 10.3797 8.86659 10.3301 8.89515L8.48175 9.95959C8.43215 9.98827 8.39098 10.0295 8.36237 10.0792C8.33377 10.1288 8.31875 10.1851 8.31881 10.2424C8.31889 10.2997 8.33413 10.356 8.36298 10.4055C8.39182 10.455 8.43325 10.4961 8.48306 10.5244L9.50263 11.1048C9.55188 11.1329 9.60763 11.1476 9.66433 11.1475C9.72104 11.1474 9.77673 11.1324 9.82588 11.1042L12.0019 9.85446ZM12.2158 5.05565C12.2159 5.11321 12.2312 5.16973 12.2602 5.21944C12.2892 5.26916 12.3309 5.31029 12.381 5.33865C12.4311 5.367 12.4878 5.38156 12.5454 5.38085C12.603 5.38013 12.6593 5.36417 12.7087 5.33459L13.6853 4.74865C13.7334 4.71976 13.7733 4.67888 13.8011 4.63C13.8288 4.58113 13.8434 4.52591 13.8434 4.46971V3.27565C13.8433 3.23262 13.8347 3.19004 13.818 3.15036C13.8013 3.11069 13.777 3.0747 13.7463 3.04449C13.7157 3.01428 13.6794 2.99044 13.6395 2.97435C13.5995 2.95825 13.5568 2.95022 13.5138 2.95071C13.4563 2.9514 13.3999 2.96736 13.3506 2.99696L12.374 3.5829C12.3258 3.61175 12.2858 3.65263 12.2581 3.70153C12.2304 3.75043 12.2158 3.80569 12.2158 3.8619V5.0559V5.05565Z" fill="#007FFF"/>
</svg>
