<svg width="16" height="16" viewBox="0 0 16 16" fill="none" xmlns="http://www.w3.org/2000/svg">
<path d="M7.59062 1.75336C7.56375 1.7558 7.47819 1.76436 7.40119 1.77042C5.62581 1.93048 3.96281 2.88848 2.9095 4.36086C2.32306 5.17955 1.94788 6.10817 1.80619 7.09186C1.75613 7.43523 1.75 7.53667 1.75 8.00217C1.75 8.46773 1.75612 8.56917 1.80625 8.91248C2.14587 11.2597 3.81625 13.2319 6.08162 13.9626C6.48731 14.0934 6.91494 14.1825 7.40125 14.2363C7.59069 14.257 8.40931 14.257 8.59875 14.2363C9.43819 14.1434 10.1493 13.9357 10.8507 13.5777C10.9582 13.5227 10.979 13.508 10.9643 13.4959C10.9546 13.4885 10.4963 12.8739 9.9465 12.131L8.947 10.7808L7.6945 8.92717C7.00537 7.90811 6.43844 7.07473 6.4335 7.07473C6.42862 7.07355 6.42375 7.89711 6.42131 8.90273C6.41762 10.6635 6.41644 10.7344 6.39444 10.7759C6.36269 10.8357 6.33825 10.8602 6.28688 10.8871C6.24781 10.9066 6.21356 10.9103 6.02906 10.9103H5.81769L5.76144 10.8749C5.72661 10.853 5.69832 10.8222 5.67956 10.7857L5.65394 10.7307L5.65644 8.2808L5.66006 5.82967L5.69794 5.78198C5.7175 5.75636 5.75906 5.72336 5.78837 5.70748C5.83844 5.68305 5.858 5.68061 6.06938 5.68061C6.31869 5.68061 6.36019 5.69036 6.425 5.76123C6.44331 5.7808 7.12144 6.8023 7.93281 8.03273C8.75423 9.27817 9.57615 10.5233 10.3986 11.768L11.3883 13.2674L11.4384 13.2344C11.8819 12.946 12.3512 12.5354 12.7226 12.1077C13.5132 11.1999 14.0228 10.0929 14.1938 8.91248C14.2439 8.56917 14.25 8.46773 14.25 8.00217C14.25 7.53661 14.2439 7.43523 14.1938 7.09186C13.8541 4.74461 12.1837 2.77248 9.91838 2.0418C9.51881 1.91223 9.09362 1.82305 8.61706 1.7693C8.49975 1.75705 7.69206 1.74367 7.59069 1.75342M10.1493 5.53398C10.2079 5.5633 10.2556 5.61948 10.2728 5.67811C10.2825 5.70992 10.2849 6.3893 10.2825 7.9203L10.2788 10.1173L9.8915 9.52342L9.50294 8.92961V7.33261C9.50294 6.30011 9.50781 5.71967 9.51512 5.69155C9.53469 5.62317 9.57744 5.56942 9.63613 5.53761C9.68619 5.51198 9.70456 5.50948 9.89638 5.50948C10.0773 5.50948 10.109 5.51198 10.1493 5.53398Z" fill="black"/>
</svg>
