<svg width="16" viewBox="0 0 16 16" fill="none" xmlns="http://www.w3.org/2000/svg">
<path d="M8.95988 13.3334H14.8798C15.069 13.3334 15.25 13.2668 15.4132 13.173C15.5766 13.0793 15.7458 12.962 15.8401 12.7998C15.9345 12.6375 16 12.4536 16 12.2668C16 12.0799 15.9345 11.8954 15.8401 11.7333L11.8401 4.8535C11.7458 4.69138 11.6301 4.5735 11.4664 4.47963C11.3024 4.38575 11.0689 4.31975 10.8795 4.31975C10.6903 4.31975 10.5099 4.38638 10.3466 4.47963C10.1834 4.57288 10.0676 4.69125 9.97325 4.8535L8.95975 6.6135L6.93313 3.19963C6.83875 3.0375 6.72313 2.86713 6.55988 2.77338C6.39663 2.67963 6.2155 2.66663 6.02625 2.66663C5.837 2.66663 5.65662 2.67963 5.49325 2.77338C5.33 2.86713 5.16075 3.0375 5.06637 3.19963L0.10675 11.733C0.012375 11.8951 0 12.0793 0 12.2668C0 12.4543 0.012375 12.6375 0.10675 12.7996C0.201 12.9618 0.369625 13.0796 0.533625 13.1729C0.6975 13.2663 0.877875 13.3334 1.06662 13.3334H4.8C6.27938 13.3334 7.35612 12.6696 8.10662 11.4129L9.91975 8.26663L10.8795 6.61338L13.813 11.6264H9.91988L8.95988 13.3334ZM4.74625 11.6263H2.13325L6.02663 4.90625L8 8.26675L6.69287 10.5451C6.19462 11.3605 5.62625 11.6264 4.74638 11.6264L4.74625 11.6263Z" fill="#00DC82"/>
</svg>
