<svg width="16" height="16" viewBox="0 0 16 16" fill="none" xmlns="http://www.w3.org/2000/svg">
<path d="M6.4721 10.6453V9.69264L3.82543 10.4426C3.82543 10.4426 4.02143 9.30731 5.40143 8.91531C5.74835 8.81111 6.11497 8.79032 6.47143 8.85464V4.94797H7.79677C7.687 4.59672 7.55313 4.25346 7.3961 3.92064C7.2021 3.52664 7.00343 3.78731 6.5521 4.16531C6.2341 4.43064 5.43077 4.99731 4.2221 5.32331C3.01343 5.64931 2.03677 5.56264 1.62877 5.49197C1.05077 5.39197 0.7481 5.26464 0.776767 5.70531C0.801434 6.09197 0.893434 6.69397 1.10477 7.48731C1.56343 9.20731 3.0761 12.5206 5.93477 11.7506C6.68143 11.5493 7.2081 11.152 7.5741 10.644H6.4721V10.6453ZM2.20277 7.51131L4.2341 6.97597C4.2341 6.97597 4.1741 7.75797 3.41277 7.95864C2.65143 8.15931 2.20277 7.51131 2.20277 7.51131Z" fill="#EF5350"/>
<path d="M14.1185 4.99335C13.5905 5.08668 12.3225 5.20135 10.7572 4.78135C9.19051 4.36135 8.15184 3.62868 7.73984 3.28402C7.15585 2.79535 6.89985 2.45468 6.64651 2.96868C6.42318 3.42202 6.13785 4.15935 5.86118 5.19335C5.26251 7.42935 4.81451 12.148 8.51785 13.1407C12.2212 14.1334 14.1925 9.82202 14.7912 7.58535C15.0685 6.55335 15.1892 5.77202 15.2225 5.26735C15.2612 4.69602 14.8692 4.86202 14.1185 4.99402V4.99335ZM6.67718 6.84402C6.67718 6.84402 7.26051 5.93535 8.25051 6.21735C9.24118 6.49868 9.31718 7.59402 9.31718 7.59402L6.67718 6.84402ZM9.09318 10.9173C7.35251 10.4073 7.08385 9.01868 7.08385 9.01868L11.7612 10.3267C11.7612 10.3267 10.8172 11.42 9.09318 10.9173ZM10.7478 8.06402C10.7478 8.06402 11.3305 7.15602 12.3198 7.43868C13.3092 7.72135 13.3878 8.81535 13.3878 8.81535L10.7478 8.06402Z" fill="#4CAF50"/>
</svg>
