<svg width="16" height="16" viewBox="0 0 16 16" fill="none" xmlns="http://www.w3.org/2000/svg">
<mask id="mask0_140_106" style="mask-type:luminance" maskUnits="userSpaceOnUse" x="0" y="0" width="16" height="16">
<path d="M0 0H16V16H0V0Z" fill="white"/>
</mask>
<g mask="url(#mask0_140_106)">
<path d="M16 7.79269C16 6.73269 14.6727 5.72802 12.6373 5.10535C13.1073 3.03135 12.8987 1.38069 11.9787 0.85202C11.7557 0.727319 11.5034 0.664484 11.248 0.67002V1.39669C11.398 1.39669 11.5187 1.42669 11.62 1.48202C12.0633 1.73669 12.256 2.70469 12.106 3.95069C12.07 4.25735 12.0113 4.58002 11.9393 4.90935C11.2576 4.74567 10.5659 4.62697 9.86867 4.55402C9.45301 3.98105 8.9998 3.4363 8.512 2.92335C9.57533 1.93535 10.5733 1.39402 11.252 1.39402V0.666687C10.3547 0.666687 9.18067 1.30602 7.99333 2.41469C6.80667 1.31335 5.632 0.68002 4.73533 0.68002V1.40669C5.41067 1.40669 6.412 1.94535 7.47533 2.92669C7.01867 3.40669 6.562 3.95069 6.128 4.55402C5.42927 4.62593 4.7363 4.74577 4.054 4.91269C3.97933 4.58646 3.92267 4.27135 3.884 3.96735C3.73067 2.72069 3.92 1.75269 4.36067 1.49535C4.458 1.43669 4.58533 1.41002 4.73533 1.41002V0.683354C4.462 0.683354 4.21333 0.74202 3.99867 0.865354C3.082 1.39402 2.87667 3.04069 3.34933 5.10869C1.32067 5.73535 0 6.73602 0 7.79269C0 8.85269 1.32733 9.85735 3.36267 10.4794C2.89267 12.554 3.10133 14.2047 4.02133 14.7327C4.23333 14.8567 4.48133 14.9154 4.75467 14.9154C5.652 14.9154 6.826 14.276 8.01333 13.1674C9.2 14.2694 10.374 14.902 11.2713 14.902C11.5287 14.9068 11.7827 14.8438 12.008 14.7194C12.9247 14.1914 13.13 12.5447 12.6573 10.4767C14.6793 9.85402 16 8.84935 16 7.79269ZM11.7533 5.61735C11.6267 6.05326 11.4799 6.48306 11.3133 6.90535C11.0412 6.37494 10.7419 5.85892 10.4167 5.35935C10.8807 5.42735 11.3264 5.51335 11.754 5.61735M10.2607 9.09069C10.0164 9.51697 9.75421 9.93268 9.47467 10.3367C8.49616 10.4228 7.51203 10.4239 6.53333 10.34C5.97209 9.53806 5.48115 8.68913 5.066 7.80269C5.48021 6.91399 5.96907 6.06205 6.52733 5.25602C7.5056 5.16975 8.4895 5.16841 9.468 5.25202C9.73911 5.64091 10.0022 6.05424 10.2573 6.49202C10.5049 6.91913 10.7311 7.35158 10.936 7.78935C10.7287 8.23212 10.5034 8.66626 10.2607 9.09069ZM11.3133 8.66669C11.4893 9.10402 11.64 9.54069 11.7633 9.96469C11.3367 10.0694 10.886 10.1574 10.42 10.2254C10.7435 9.72099 11.0417 9.20079 11.3133 8.66669ZM8.00667 12.1467C7.70267 11.8329 7.40044 11.4849 7.1 11.1027C7.39333 11.116 7.69333 11.126 7.99667 11.126C8.30378 11.1265 8.606 11.1187 8.90333 11.1027C8.61 11.4847 8.30667 11.8334 8.00667 12.1467ZM5.58 10.2254C5.13048 10.1603 4.68422 10.0745 4.24267 9.96802C4.36333 9.54735 4.51333 9.11335 4.68267 8.68002C4.81667 8.94002 4.95733 9.20135 5.11067 9.46269C5.264 9.72358 5.42044 9.9778 5.58 10.2254ZM7.99 3.43869C8.294 3.75246 8.59622 4.10046 8.89667 4.48269C8.60333 4.46935 8.30333 4.45935 8 4.45935C7.69289 4.45891 7.39067 4.46669 7.09333 4.48269C7.38667 4.10069 7.69 3.75202 7.99 3.43869ZM5.57667 5.36002C5.25323 5.8633 4.95508 6.38239 4.68333 6.91535C4.51218 6.49031 4.362 6.05712 4.23333 5.61735C4.66 5.51602 5.11067 5.42802 5.57667 5.36002ZM2.62533 9.44269C1.47067 8.95069 0.724 8.30469 0.724 7.79269C0.724 7.28069 1.47067 6.63135 2.62533 6.14269C2.90533 6.02202 3.212 5.91402 3.52867 5.81335C3.71467 6.45202 3.95933 7.11735 4.262 7.79935C3.97593 8.44068 3.73424 9.1009 3.53867 9.77535C3.22901 9.67934 2.92421 9.56831 2.62533 9.44269ZM4.38 14.1027C3.93667 13.8494 3.744 12.88 3.894 11.6347C3.93 11.328 3.98867 11.0047 4.06067 10.6754C4.69933 10.832 5.39733 10.9527 6.13133 11.0314C6.54699 11.6043 7.0002 12.1491 7.488 12.662C6.42467 13.65 5.42667 14.1914 4.748 14.1914C4.62006 14.1919 4.49387 14.1617 4.38 14.1034M12.116 11.6187C12.2693 12.8647 12.08 13.8334 11.6393 14.0907C11.542 14.1494 11.4147 14.1754 11.2647 14.1754C10.5893 14.1754 9.588 13.6374 8.52467 12.6554C9.01063 12.1447 9.46081 11.6012 9.872 11.0287C10.5707 10.9568 11.2637 10.8369 11.946 10.67C12.022 10.9989 12.0787 11.3151 12.116 11.6187ZM13.3713 9.44335C13.0913 9.56402 12.7847 9.67202 12.468 9.77269C12.2686 9.09491 12.0236 8.43139 11.7347 7.78669C12.0347 7.10869 12.2753 6.44669 12.458 5.81069C12.7816 5.91158 13.0871 6.02246 13.3747 6.14335C14.5293 6.63535 15.276 7.28135 15.276 7.79335C15.2727 8.30535 14.526 8.95469 13.3713 9.44335Z" fill="#00D8FF"/>
<path d="M7.99653 9.28334C8.39188 9.28334 8.77103 9.12628 9.05059 8.84673C9.33014 8.56718 9.48719 8.18802 9.48719 7.79267C9.48719 7.39732 9.33014 7.01816 9.05059 6.73861C8.77103 6.45905 8.39188 6.302 7.99653 6.302C7.60118 6.302 7.22202 6.45905 6.94247 6.73861C6.66291 7.01816 6.50586 7.39732 6.50586 7.79267C6.50586 8.18802 6.66291 8.56718 6.94247 8.84673C7.22202 9.12628 7.60118 9.28334 7.99653 9.28334Z" fill="#00D8FF"/>
</g>
</svg>
