<svg width="16" height="16" viewBox="0 0 16 16" fill="none" xmlns="http://www.w3.org/2000/svg">
<path fill-rule="evenodd" clip-rule="evenodd" d="M8 1C9.38447 1 10.7378 1.41054 11.889 2.17971C13.0401 2.94888 13.9373 4.04213 14.4672 5.32122C14.997 6.6003 15.1356 8.00777 14.8655 9.36563C14.5954 10.7235 13.9287 11.9708 12.9497 12.9497C11.9708 13.9287 10.7235 14.5954 9.36563 14.8655C8.00777 15.1356 6.6003 14.997 5.32122 14.4672C4.04213 13.9373 2.94888 13.0401 2.17971 11.889C1.41054 10.7378 1 9.38447 1 8C1 6.14348 1.7375 4.36301 3.05025 3.05025C4.36301 1.7375 6.14348 1 8 1Z" fill="#CC6699"/>
<path d="M12.3911 3.99602C12.0741 2.75302 10.0126 2.34602 8.0616 3.03702C6.83972 3.44753 5.71084 4.09506 4.7396 4.94252C3.6651 5.94752 3.4936 6.82252 3.5641 7.18802C3.8141 8.47802 5.5806 9.32102 6.3071 9.94652V9.95002C6.0931 10.0555 4.5251 10.85 4.1571 11.66C3.7701 12.516 4.2186 13.13 4.5161 13.2125C4.96276 13.3201 5.43187 13.2851 5.85763 13.1124C6.2834 12.9398 6.64443 12.6382 6.8901 12.25C7.09327 11.9355 7.22038 11.578 7.26134 11.2059C7.30231 10.8337 7.256 10.4572 7.1261 10.106C7.47596 10.0166 7.83981 9.99573 8.1976 10.0445C9.4256 10.188 9.6666 10.9545 9.6206 11.2755C9.59896 11.3898 9.55297 11.498 9.48576 11.593C9.41855 11.6879 9.3317 11.7672 9.2311 11.8255C9.1451 11.879 9.1186 11.897 9.1261 11.937C9.1366 11.9945 9.1761 11.9925 9.2496 11.98C9.43413 11.9219 9.59674 11.8092 9.71598 11.6569C9.83523 11.5045 9.90552 11.3196 9.9176 11.1265C9.9471 10.3765 9.2266 9.53352 7.9506 9.55502C7.57998 9.5441 7.21011 9.59479 6.8561 9.70502L6.8021 9.64502C6.0131 8.80352 4.5551 8.20802 4.6166 7.07652C4.6391 6.66502 4.7821 5.58202 7.4166 4.26802C9.5766 3.19152 11.3056 3.48802 11.6046 4.14452C12.0316 5.08252 10.6806 6.82502 8.4376 7.07652C8.18968 7.12685 7.93362 7.12071 7.6884 7.05856C7.44319 6.99641 7.21511 6.87985 7.0211 6.71752C6.9031 6.58752 6.8856 6.58202 6.8416 6.60602C6.7701 6.64552 6.8156 6.76052 6.8416 6.82852C6.9275 6.98329 7.04344 7.11935 7.18262 7.22874C7.3218 7.33812 7.48141 7.41862 7.6521 7.46552C8.534 7.65687 9.45376 7.56591 10.2811 7.20552C11.6416 6.68102 12.7026 5.21852 12.3911 3.99602ZM6.6091 10.3315C6.70792 10.6739 6.70287 11.038 6.5946 11.3775C6.58293 11.4129 6.5701 11.4479 6.5561 11.4825C6.5421 11.5172 6.52693 11.5505 6.5106 11.5825C6.4259 11.7544 6.31696 11.9132 6.1871 12.054C5.7806 12.4975 5.2121 12.6655 4.9686 12.524C4.7056 12.3715 4.8371 11.746 5.3086 11.2475C5.67101 10.8894 6.08868 10.5919 6.5456 10.3665L6.6091 10.3315Z" fill="white"/>
</svg>
