<svg width="14" viewBox="0 0 14 14" fill="none" xmlns="http://www.w3.org/2000/svg">
<path d="M2.98096 8.82862C2.98096 9.63034 2.32711 10.2852 1.52529 10.2852C0.723457 10.2852 0.0688477 9.63034 0.0688477 8.82862C0.0688477 8.0269 0.723676 7.37207 1.52539 7.37207H2.98107L2.98096 8.82862ZM3.71475 8.82862C3.71475 8.0269 4.36958 7.37207 5.1713 7.37207C5.97302 7.37207 6.62785 8.02679 6.62785 8.82862V12.4746C6.62785 13.2764 5.97313 13.9312 5.1713 13.9312C4.36958 13.9312 3.71475 13.2764 3.71475 12.4746V8.82862Z" fill="#DE1C59"/>
<path d="M5.1713 2.98102C4.36958 2.98102 3.71475 2.32717 3.71475 1.52535C3.71475 0.723518 4.36958 0.0689087 5.1713 0.0689087C5.97302 0.0689087 6.62785 0.723737 6.62785 1.52546V2.98113L5.1713 2.98102ZM5.1713 3.71481C5.97302 3.71481 6.62785 4.36964 6.62785 5.17136C6.62785 5.97308 5.97313 6.62791 5.1713 6.62791H1.52529C0.723566 6.62791 0.0688477 5.97319 0.0688477 5.17136C0.0688477 4.36964 0.723676 3.71481 1.52539 3.71481H5.1713Z" fill="#35C5F0"/>
<path d="M11.019 5.17136C11.019 4.36964 11.6728 3.71481 12.4746 3.71481C13.2765 3.71481 13.9312 4.36964 13.9312 5.17136C13.9312 5.97308 13.2764 6.62791 12.4746 6.62791H11.019V5.17136ZM10.2852 5.17136C10.2852 5.97308 9.63034 6.62791 8.82862 6.62791C8.0269 6.62791 7.37207 5.97319 7.37207 5.17136V1.52535C7.37207 0.723627 8.02679 0.0689087 8.82862 0.0689087C9.63034 0.0689087 10.2852 0.723737 10.2852 1.52546V5.17136Z" fill="#2EB57D"/>
<path d="M8.82862 11.019C9.63034 11.019 10.2852 11.6728 10.2852 12.4746C10.2852 13.2765 9.63034 13.9312 8.82862 13.9312C8.0269 13.9312 7.37207 13.2764 7.37207 12.4746V11.019H8.82862ZM8.82862 10.2852C8.0269 10.2852 7.37207 9.63034 7.37207 8.82862C7.37207 8.0269 8.02679 7.37207 8.82862 7.37207H12.4746C13.2764 7.37207 13.9312 8.02679 13.9312 8.82862C13.9312 9.63034 13.2764 10.2852 12.4746 10.2852H8.82862Z" fill="#EBB02E"/>
</svg>
